<svg xmlns="http://www.w3.org/2000/svg"><style>:root svg:not(:target){display:none}</style><svg fill="none" viewBox="0 0 128 25" id="footer-logo"><g fill="#111" clip-path="url(#footer-logo_0)"><path d="M1.6 22.5A9.4 9.4 0 0 1 0 16.7V8.3C0 6.3.4 4.2 1.5 2.4 2.6 1.1 4.3.5 6.8.5s4.1.6 5.1 1.7c1.1 1.5 1.7 3.2 1.5 5v2H8.5V7c0-.7 0-1.4-.3-2 0-.3-.3-.5-.5-.6C7.4 4 7 4 6.8 4c-.7 0-1.2.2-1.4.7-.2.7-.3 1.5-.3 2.2v11c0 .7.1 1.4.4 2.1.2.5.7.7 1.4.7s1.1-.2 1.3-.7a6 6 0 0 0 .3-2.1v-2.5h5v2a8 8 0 0 1-1.6 5.2c-1 1.2-2.7 1.8-5 1.8-2.5-.1-4.3-.7-5.3-2ZM19.3.8h5.8l4.2 23.3h-4.6l-.8-5h-3.3l-.9 5H15L19.3.8Zm4.2 15.3-1.2-9-1.2 9h2.4ZM32.8 4.7h-3.4V.8h11.9v3.8h-3.4V24h-5.1V4.7ZM50.4.8h8.8v2.5h-5.7v7.6h4.6v2.4h-4.6v8.5h5.7v2.4h-9V.8h.2ZM61.8.8H64l6.5 15.4V.8h2.6v23.3h-2L64.5 8v16h-2.7V.8ZM76.1.8H85v2.5h-5.7v7.6h4.6v2.4h-4.6v8.5H85v2.4h-8.8V.8ZM87.5.8h4.6c1.9-.1 3.7.4 5.2 1.4 1 1 1.6 2.6 1.6 4.7 0 3-1 4.8-2.8 5.4L99.3 24h-3.1l-3-11h-2.6v11h-3.2V.8h.1Zm4.4 10c1 .1 2.1-.2 3-.8.6-.5.9-1.5.9-3 0-.8-.1-1.6-.3-2.3-.3-.5-.7-1-1.1-1.2C93.7 3 92.9 3 92 3h-1.4v7.6H92v.1ZM102.9 22.4c-1-1.8-1.6-3.9-1.4-6V8.7c0-1.5.1-3 .5-4.4.3-1 1-2 1.9-2.7 1-.7 2.4-1 3.7-.9 2 0 3.6.5 4.5 1.6a8 8 0 0 1 1.4 5.1v.9h-3v-.8c0-.8 0-1.7-.2-2.5-.1-.5-.4-1-.8-1.3a3 3 0 0 0-2-.5 3 3 0 0 0-2 .6 2.3 2.3 0 0 0-.7 1.6c-.2 1-.2 1.8-.2 2.8v8.6c-.1 1.4.1 2.7.6 4 .4.7 1.2 1 2.4 1a2.4 2.4 0 0 0 2.4-1.2c.5-1.3.7-2.7.7-4v-1.7h-3v-2.3h5.9V24h-2l-.3-2.7c-.3 1-.8 1.7-1.6 2.2a4 4 0 0 1-2.5.8 5 5 0 0 1-4.3-2ZM120 16l-5-15h3l3.6 11.1L125 1h3l-5 15v8.2h-3v-8.2Z"></path></g><defs><clipPath id="footer-logo_0"><path fill="#fff" d="M0 .5h128v24H0z"></path></clipPath></defs></svg><svg fill="none" viewBox="0 0 27 34" id="html-academy"><path fill="#666" d="M13.6 0h-.1L0 1.4V26l13.5 8L27 26V1.4L13.6 0Zm11.6 25-11.7 7-11.7-7V15l11.7 6.8v1.3l-8-4.7v1.2l8 4.8v1.3l-8-4.8v1.2l8 4.9 8.1-4.9V17l3.6-2.1V25Zm0-11.5L22 15.3l-1.5 1-7-4.3v1.2l6 3.6-.2.1-.8.5-5-3v1.3l3.9 2.3-1 .6-3-1.7v1.2l2 1.2-2 1.1-11.6-6.8 11.6-7 11.8 6.9Zm0-1.3L13.4 5.3l-11.6 7V3l11.7-1.2L25.2 3v9.2Z"></path></svg><svg fill="none" viewBox="0 0 33 38" id="logo-mobile"><g clip-path="url(#logo-mobile_0)"><path fill="#FDC305" d="M6 21v-2.3c6.6-1 13.3-1.4 20-1.4v1.8a25 25 0 0 1 5.9-1.8A16.8 16.8 0 0 0 25 9a16.2 16.2 0 0 0-20 2.1 17 17 0 0 0-5 9.5l6 .3ZM27 24.5c-1.2 1.3-1.4 1.2-1.4 3.5v9.2a16.7 16.7 0 0 0 7-17c-2 1.1-3.9 2.6-5.6 4.3ZM6.3 26 1.2 24 0 24A17 17 0 0 0 8.6 38L6.3 26Z"></path><path fill="#F06351" d="M26 17.3c0-5.6-.4-11.2-1.3-16.6 0 0-.2-1.3-1-.3-.5 1.3-1 2.6-1.1 4-4.2-.3-8.5-.2-12.7.3C9.2 2 7.8.7 7.1 1c-.7.3-.7 3.4-.7 3.4l-.3 14.2a139 139 0 0 1 20-1.3Z"></path><path fill="#000" d="m12.3 14.1 1.4 1c.4.2.6.4.6.6 0 .1-.3.3-.6.3-.4 0-1-.1-1-.3h1.2c-.6-.4-1.1-1-1.6-1.6ZM19.7 14.3l-1 1.3s-.2.4.1.3l1.2-.3-.1-.2-1 .1.8-1.2s.1-.2 0 0ZM16.6 20.4c.4-.2.8-.6 1-1 .3-.7 0-1-.4-1-.6-.1-1.2 0-1.7.3-.4.4-.3.8 0 1l1 .7Z"></path><path fill="#F06351" d="M16.2 21.7a2 2 0 0 1-.5.6c-.2.2-.6.3-1 .4-.5 0-1-.1-1.4-.5-.2 0-.4-.2-.5-.4a1 1 0 0 0-.4-.3s.8 4.2 2.6 4.8c1.8.7 2-.7 2.1-1.1 0-1.2-.2-2.3-.8-3.3 0-.3 0-.1-.1-.2Z"></path><path fill="#000" d="M14.6 22.8a3.4 3.4 0 0 1-2.4-1.5.1.1 0 0 1 .1-.1.1.1 0 0 1 .2 0c.5.7 1.2 1.2 2 1.3a2 2 0 0 0 1.7-1l.1-.2.1.2s.4.8 1 .8 1-.4 1.6-1.3a.1.1 0 0 1 .2 0v.2c-.6 1-1.2 1.5-1.8 1.4a1.5 1.5 0 0 1-1.1-.7 2.3 2.3 0 0 1-1.7 1Z"></path><path fill="#F06351" d="M26 19.1a58.7 58.7 0 0 0-5 5.3 31.6 31.6 0 0 1-5.3 4.9c-.2-.5-1.6-1.5-1.6-1.5L9 23.9l-3.1-3-2-.1c2.9 4.2 7 7.4 11.9 8.9a21 21 0 0 0 5-3.3c2.1-1.9 4-3.9 5.9-6 .5-.6.9-1.3 1.1-2l-1.8.7Z"></path></g><defs><clipPath id="logo-mobile_0"><path fill="#fff" d="M0 0h33v38H0z"></path></clipPath></defs></svg><svg fill="none" viewBox="0 0 101 18" id="logo"><g fill="#111" clip-path="url(#logo_0)"><path d="M1.3 16.5A6.9 6.9 0 0 1 0 12.2V5.8a7 7 0 0 1 1.2-4.3C2 .5 3.4 0 5.4 0s3.2.5 4 1.3c.9 1 1.3 2.4 1.2 3.8v1.5H6.7V4.8c0-.5 0-1-.2-1.5L6 2.8l-.6-.1c-.6 0-1 .1-1.1.5C4 3.8 4 4.3 4 5v8.3l.3 1.6c.2.4.6.5 1.2.5.5 0 .8-.1 1-.5.2-.6.2-1.1.2-1.6v-1.9h3.9v1.5c0 1.4-.3 2.8-1.2 3.9-.8 1-2.1 1.4-4 1.4-2-.1-3.3-.6-4.1-1.6ZM15.3.2h4.5L23 17.8h-3.7l-.6-3.7h-2.6l-.6 3.7h-3.7L15.3.2Zm3.2 11.6-1-6.9-.9 6.9h1.9ZM25.8 3.2h-2.6v-3h9.4v2.9h-2.7v14.7h-4V3.2ZM39.8.2h7v1.9h-4.6v5.7h3.6v1.8h-3.6v6.5h4.5v1.7h-7V.2ZM48.8.2h1.7l5.1 11.6V.2h2v17.6h-1.5L51 5.8v12h-2.1V.2ZM60 .2h7v1.9h-4.5v5.7h3.6v1.8h-3.6v6.5H67v1.7h-7V.2ZM69 .2h3.7c1.4 0 2.9.3 4 1.1 1 .7 1.3 2 1.3 3.5 0 2.3-.7 3.7-2.2 4.1l2.5 8.8H76l-2.4-8.2h-2v8.2H69V.2Zm3.5 7.6c.9 0 1.7-.2 2.3-.6.5-.4.8-1.2.8-2.4 0-.5-.1-1.1-.3-1.6a2 2 0 0 0-.9-1C74 2 73.3 2 72.7 2h-1.1v5.8h1ZM81.2 16.5A7.6 7.6 0 0 1 80 12V6.2c0-1.2 0-2.3.4-3.4a4 4 0 0 1 1.5-2c.8-.5 1.9-.7 2.9-.6 1.6 0 2.8.3 3.5 1.2a5.8 5.8 0 0 1 1.1 3.8v.6h-2.3v-.5c0-.6 0-1.3-.2-2 0-.3-.3-.7-.6-1L84.9 2c-.6 0-1.1.1-1.6.5a1.7 1.7 0 0 0-.6 1.2 14 14 0 0 0-.2 2v6.6c0 1 .1 2 .5 3 .3.5 1 .8 1.9.8.4 0 .7 0 1-.2.4-.2.7-.4.9-.7.4-1 .6-2 .5-3.1v-1.3H85V9.1h4.6v8.7H88l-.2-2c-.2.6-.6 1.2-1.2 1.6-.6.4-1.3.6-2 .6a4 4 0 0 1-3.4-1.5ZM94.7 11.6 90.8.3h2.4l2.7 8.5L98.6.3h2.4l-3.9 11.3v6.2h-2.3v-6.2h-.1Z"></path></g><defs><clipPath id="logo_0"><path fill="#fff" d="M0 0h101v18H0z"></path></clipPath></defs></svg></svg>