<svg xmlns="http://www.w3.org/2000/svg" width="33" height="38" fill="none" viewBox="0 0 33 38">
  <g clip-path="url(#a)">
    <path fill="#FDC305" d="M6 21v-2.3c6.6-1 13.3-1.4 20-1.4v1.8a25 25 0 0 1 5.9-1.8A16.8 16.8 0 0 0 25 9a16.2 16.2 0 0 0-20 2.1 17 17 0 0 0-5 9.5l6 .3ZM27 24.5c-1.2 1.3-1.4 1.2-1.4 3.5v9.2a16.7 16.7 0 0 0 7-17c-2 1.1-3.9 2.6-5.6 4.3ZM6.3 26 1.2 24 0 24A17 17 0 0 0 8.6 38L6.3 26Z"/>
    <path fill="#F06351" d="M26 17.3c0-5.6-.4-11.2-1.3-16.6 0 0-.2-1.3-1-.3-.5 1.3-1 2.6-1.1 4-4.2-.3-8.5-.2-12.7.3C9.2 2 7.8.7 7.1 1c-.7.3-.7 3.4-.7 3.4l-.3 14.2a139 139 0 0 1 20-1.3Z"/>
    <path fill="#000" d="m12.3 14.1 1.4 1c.4.2.6.4.6.6 0 .1-.3.3-.6.3-.4 0-1-.1-1-.3h1.2c-.6-.4-1.1-1-1.6-1.6ZM19.7 14.3l-1 1.3s-.2.4.1.3l1.2-.3-.1-.2-1 .1.8-1.2s.1-.2 0 0ZM16.6 20.4c.4-.2.8-.6 1-1 .3-.7 0-1-.4-1-.6-.1-1.2 0-1.7.3-.4.4-.3.8 0 1l1 .7Z"/>
    <path fill="#F06351" d="M16.2 21.7a2 2 0 0 1-.5.6c-.2.2-.6.3-1 .4-.5 0-1-.1-1.4-.5-.2 0-.4-.2-.5-.4a1 1 0 0 0-.4-.3s.8 4.2 2.6 4.8c1.8.7 2-.7 2.1-1.1 0-1.2-.2-2.3-.8-3.3 0-.3 0-.1-.1-.2Z"/>
    <path fill="#000" d="M14.6 22.8a3.4 3.4 0 0 1-2.4-1.5.1.1 0 0 1 .1-.1.1.1 0 0 1 .2 0c.5.7 1.2 1.2 2 1.3a2 2 0 0 0 1.7-1l.1-.2.1.2s.4.8 1 .8 1-.4 1.6-1.3a.1.1 0 0 1 .2 0v.2c-.6 1-1.2 1.5-1.8 1.4a1.5 1.5 0 0 1-1.1-.7 2.3 2.3 0 0 1-1.7 1Z"/>
    <path fill="#F06351" d="M26 19.1a58.7 58.7 0 0 0-5 5.3 31.6 31.6 0 0 1-5.3 4.9c-.2-.5-1.6-1.5-1.6-1.5L9 23.9l-3.1-3-2-.1c2.9 4.2 7 7.4 11.9 8.9a21 21 0 0 0 5-3.3c2.1-1.9 4-3.9 5.9-6 .5-.6.9-1.3 1.1-2l-1.8.7Z"/>
  </g>
  <defs>
    <clipPath id="a">
      <path fill="#fff" d="M0 0h33v38H0z"/>
    </clipPath>
  </defs>
</svg>
